<?xml version="1.0" standalone="no"?>
<!DOCTYPE svg PUBLIC "-//W3C//DTD SVG 20010904//EN"
 "http://www.w3.org/TR/2001/REC-SVG-20010904/DTD/svg10.dtd">
<svg version="1.0" xmlns="http://www.w3.org/2000/svg"
 width="2473.000000pt" height="785.000000pt" viewBox="0 0 2473.000000 785.000000"
 preserveAspectRatio="xMidYMid meet">
<metadata>
Created by potrace 1.14, written by Peter Selinger 2001-2017
</metadata>
<g transform="translate(0.000000,785.000000) scale(0.100000,-0.100000)"
fill="#000000" stroke="none">
<path d="M1575 6864 c-852 -542 -1555 -991 -1562 -997 -9 -9 356 -245 1547
-1002 l1559 -990 1 -1937 c0 -1066 2 -1938 4 -1938 3 0 802 448 1776 996
l1770 996 -2 1936 -3 1935 -1765 994 c-971 546 -1767 993 -1770 993 -3 0 -702
-444 -1555 -986z"/>
<path d="M12920 5360 l0 -460 445 0 445 0 0 460 0 460 -445 0 -445 0 0 -460z"/>
<path d="M20570 3840 l0 -1980 290 0 290 0 1 248 0 247 18 -50 c31 -86 88
-190 139 -254 96 -120 192 -188 320 -228 74 -23 94 -25 190 -21 83 4 122 11
175 31 314 121 524 492 604 1067 24 179 24 561 -1 725 -76 499 -272 868 -531
995 -159 79 -339 75 -520 -10 -103 -49 -197 -134 -275 -251 l-60 -90 0 775 0
776 -320 0 -320 0 0 -1980z m1126 79 c67 -32 128 -99 174 -192 64 -131 82
-214 87 -418 8 -254 -16 -401 -87 -555 -66 -142 -150 -212 -265 -222 -56 -4
-72 -1 -119 22 -192 94 -310 434 -277 797 14 158 39 259 90 366 72 150 167
223 288 223 44 0 77 -7 109 -21z"/>
<path d="M8068 5447 l-438 -202 0 -317 0 -318 -155 0 -155 0 0 -395 0 -395
154 0 154 0 5 -602 c3 -487 7 -623 20 -705 19 -118 48 -235 77 -312 72 -186
192 -312 353 -369 97 -34 288 -42 434 -18 89 16 272 70 366 110 l37 16 0 395
c0 217 -3 395 -7 395 -5 -1 -33 -9 -63 -20 -74 -26 -174 -26 -217 -1 -41 26
-78 91 -97 171 -13 53 -16 145 -16 503 l0 437 200 0 200 0 0 395 0 395 -200 0
-200 0 0 520 c0 286 -3 520 -7 519 -5 0 -205 -91 -445 -202z"/>
<path d="M10425 4666 c-184 -46 -328 -226 -436 -545 l-39 -116 0 303 0 302
-415 0 -415 0 0 -1375 0 -1375 439 0 440 0 3 583 4 582 27 99 c62 230 179 392
317 441 55 19 183 19 246 0 27 -8 50 -15 52 -15 1 0 1 249 0 553 l-3 552 -55
12 c-70 14 -103 14 -165 -1z"/>
<path d="M11355 4674 c-192 -15 -341 -49 -509 -115 l-106 -42 0 -383 c0 -211
2 -384 5 -384 2 0 35 20 72 44 150 96 312 159 452 175 106 12 260 -2 333 -29
72 -27 140 -87 172 -153 23 -47 52 -185 40 -196 -2 -2 -62 3 -132 12 -157 21
-287 21 -415 2 -405 -61 -637 -296 -714 -725 -23 -132 -23 -405 1 -515 53
-239 173 -412 349 -499 95 -47 181 -66 299 -66 235 0 433 129 551 360 l47 91
0 -195 0 -196 415 0 415 0 0 833 c0 837 -7 1051 -35 1194 -42 207 -121 375
-233 494 -143 152 -307 233 -556 274 -90 15 -360 26 -451 19z m461 -1715 c-8
-125 -33 -234 -70 -307 -55 -108 -116 -152 -213 -152 -79 0 -129 29 -162 95
-23 44 -26 61 -26 155 0 93 3 112 27 162 52 111 151 154 367 157 l84 1 -7
-111z"/>
<path d="M15505 4674 c-229 -35 -401 -188 -495 -440 l-29 -79 -1 228 0 227
-420 0 -420 0 0 -1375 0 -1375 445 0 445 0 0 887 c0 794 2 893 17 946 35 126
147 167 222 82 57 -65 55 -36 59 -1012 l3 -903 445 0 445 0 -4 1068 c-4 1164
-2 1118 -63 1314 -68 217 -209 363 -399 413 -60 15 -202 26 -250 19z"/>
<path d="M17500 4670 c-330 -42 -600 -245 -767 -574 -218 -433 -241 -1119 -52
-1601 73 -187 153 -309 293 -443 128 -123 276 -201 448 -236 97 -20 279 -21
389 -1 87 15 230 60 288 90 l34 17 -6 247 c-4 135 -7 295 -7 354 l0 108 -27
-19 c-111 -78 -242 -116 -383 -110 -82 3 -104 8 -156 34 -117 59 -196 144
-260 278 -54 114 -74 202 -81 356 -9 219 18 372 93 527 75 156 186 250 321
272 130 21 293 -24 398 -109 l40 -32 7 34 c4 18 14 157 23 308 9 151 18 291
21 312 5 34 3 38 -42 69 -136 93 -380 144 -574 119z"/>
<path d="M23701 4670 c-302 -42 -546 -236 -696 -553 -231 -488 -231 -1251 0
-1722 142 -290 363 -487 635 -566 107 -31 340 -38 482 -14 120 19 288 73 373
118 l60 32 3 337 2 337 -80 -54 c-154 -102 -299 -148 -475 -148 -175 0 -274
33 -372 126 -83 78 -126 179 -157 365 l-5 32 631 0 631 0 -6 253 c-6 266 -21
407 -63 596 -105 470 -329 759 -650 841 -91 23 -226 32 -313 20z m212 -616
c138 -47 228 -218 244 -466 l6 -88 -347 0 -346 0 0 46 c0 123 63 329 126 411
75 99 199 137 317 97z"/>
<path d="M12920 3235 l0 -1375 445 0 445 0 0 1375 0 1375 -445 0 -445 0 0
-1375z"/>
<path d="M18253 3633 c3 -874 5 -988 20 -1073 73 -398 227 -636 472 -730 92
-35 262 -40 372 -10 205 55 363 212 464 459 l34 84 3 -252 2 -251 290 0 290 0
0 1375 0 1375 -319 0 -320 0 -4 -727 c-3 -629 -6 -741 -20 -823 -57 -315 -168
-462 -352 -464 -116 -1 -187 53 -235 180 -61 164 -70 310 -70 1152 l0 682
-315 0 -316 0 4 -977z"/>
</g>
</svg>
